<svg width="24" height="24" viewBox="0 0 24 24" fill="none" xmlns="http://www.w3.org/2000/svg">
<path d="M6.5 8.17957C6.5 5.53631 8.10518 3 11 3C13.8948 3 15.5 5.53631 15.5 8.17957C15.5 11.0803 13.0668 12.9412 11 12.9412C8.93319 12.9412 6.5 11.0803 6.5 8.17957Z" fill="#242424"/>
<path d="M3 14.5883C3 13.0143 3.79966 11.6226 5.01653 10.8103C6.08596 13.3775 8.64019 14.9413 11 14.9413C13.3598 14.9413 15.914 13.3775 16.9835 10.8103C18.0897 11.5488 18.8512 12.766 18.9805 14.1639C18.6732 14.0577 18.3433 14 18 14C16.6462 14 15.5019 14.8967 15.1285 16.1285C13.8967 16.5019 13 17.6462 13 19C13 19.3507 13.0602 19.6873 13.1707 20.0001H5.75C4.22334 20.0001 3 18.7544 3 17.2354V14.5883Z" fill="#242424"/>
<path d="M19 17C19 16.4477 18.5523 16 18 16C17.4477 16 17 16.4477 17 17V18H16C15.4477 18 15 18.4477 15 19C15 19.5523 15.4477 20 16 20H17V21C17 21.5523 17.4477 22 18 22C18.5523 22 19 21.5523 19 21V20H20C20.5523 20 21 19.5523 21 19C21 18.4477 20.5523 18 20 18H19V17Z" fill="#242424"/>
</svg>
