<svg width="24" height="24" viewBox="0 0 24 24" fill="none" xmlns="http://www.w3.org/2000/svg">
<path d="M5.5 8.17957C5.5 5.53631 7.10518 3 10 3C12.8948 3 14.5 5.53631 14.5 8.17957C14.5 11.0803 12.0668 12.9412 10 12.9412C7.93319 12.9412 5.5 11.0803 5.5 8.17957Z" fill="#242424"/>
<path d="M2 14.5883C2 13.0143 2.79966 11.6226 4.01653 10.8103C5.08596 13.3775 7.64019 14.9413 10 14.9413C12.3598 14.9413 14.914 13.3775 15.9835 10.8103C17.0984 11.5546 17.8631 12.7851 17.9834 14.1967L17.3187 15.3044C16.1992 14.7566 14.8093 14.948 13.8787 15.8786C12.7467 17.0106 12.7084 18.8222 13.764 20.0001H4.75C3.22334 20.0001 2 18.7544 2 17.2354V14.5883Z" fill="#242424"/>
<path d="M21.8575 15.5144C22.1416 15.0408 21.9881 14.4266 21.5145 14.1424C21.0409 13.8583 20.4267 14.0118 20.1425 14.4854L17.8015 18.3872L16.7071 17.2928C16.3166 16.9023 15.6834 16.9023 15.2929 17.2928C14.9024 17.6833 14.9024 18.3165 15.2929 18.707L17.2929 20.707C17.5106 20.9248 17.8166 21.03 18.1222 20.9924C18.4278 20.9548 18.6991 20.7785 18.8575 20.5144L21.8575 15.5144Z" fill="#242424"/>
</svg>
