<svg width="24" height="24" viewBox="0 0 24 24" fill="none" xmlns="http://www.w3.org/2000/svg">
<path fill-rule="evenodd" clip-rule="evenodd" d="M7.70711 3.29289C7.51957 3.10536 7.26522 3 7 3C6.73478 3 6.48043 3.10536 6.29289 3.29289C4.828 4.75779 4 6.81722 4 9.00004C4 13.0797 7.05369 16.446 11 16.9381V19H9C8.44772 19 8 19.4477 8 20C8 20.5523 8.44772 21 9 21H15C15.5523 21 16 20.5523 16 20C16 19.4477 15.5523 19 15 19H13V16.9415C14.8043 16.7293 16.4683 15.9459 17.7071 14.7071C18.0976 14.3166 18.0976 13.6834 17.7071 13.2929L16.1716 11.7574C16.6951 10.967 17 10.0191 17 9C17 6.23858 14.7614 4 12 4C10.9809 4 10.033 4.30488 9.24261 4.8284L7.70711 3.29289ZM12 14C13.0191 14 13.967 13.6951 14.7574 13.1716L15.5206 13.9348C14.5377 14.612 13.312 15 12 15C8.68628 15 6 12.3137 6 9.00004C6 7.68802 6.38796 6.46228 7.06518 5.47939L7.8284 6.24261C7.30488 7.03304 7 7.98092 7 9C7 11.7614 9.23858 14 12 14Z" fill="#242424"/>
</svg>
