<svg width="24" height="24" viewBox="0 0 24 24" fill="none" xmlns="http://www.w3.org/2000/svg">
<path fill-rule="evenodd" clip-rule="evenodd" d="M11 2H5C3.34315 2 2 3.34315 2 5V11H11V2ZM7.5 5C7.5 4.44772 7.05228 4 6.5 4C5.94772 4 5.5 4.44772 5.5 5V5.5H5C4.44772 5.5 4 5.94772 4 6.5C4 7.05228 4.44772 7.5 5 7.5H5.5V8C5.5 8.55228 5.94772 9 6.5 9C7.05228 9 7.5 8.55228 7.5 8V7.5H8C8.55228 7.5 9 7.05228 9 6.5C9 5.94772 8.55228 5.5 8 5.5H7.5V5Z" fill="#242424"/>
<path fill-rule="evenodd" clip-rule="evenodd" d="M2 13V19C2 20.6569 3.34315 22 5 22H11V13H2ZM8.79286 16.707C9.18338 16.3165 9.18338 15.6834 8.79286 15.2928C8.40233 14.9023 7.76917 14.9023 7.37864 15.2928L4.37859 18.2929C3.98806 18.6834 3.98806 19.3166 4.37859 19.7071C4.76911 20.0976 5.40228 20.0976 5.7928 19.7071L8.79286 16.707Z" fill="#242424"/>
<path fill-rule="evenodd" clip-rule="evenodd" d="M13 22H19C20.6569 22 22 20.6569 22 19V13H13V22ZM16.7929 15.3787C16.4023 14.9881 15.7692 14.9881 15.3787 15.3787C14.9881 15.7692 14.9881 16.4023 15.3787 16.7929L16.0858 17.5L15.3787 18.2071C14.9882 18.5976 14.9882 19.2308 15.3787 19.6213C15.7692 20.0118 16.4024 20.0118 16.7929 19.6213L17.5 18.9142L18.2071 19.6213C18.5976 20.0118 19.2308 20.0118 19.6213 19.6213C20.0118 19.2308 20.0118 18.5976 19.6213 18.2071L18.9142 17.5L19.6213 16.7929C20.0119 16.4023 20.0119 15.7692 19.6213 15.3787C19.2308 14.9881 18.5977 14.9881 18.2071 15.3787L17.5 16.0858L16.7929 15.3787Z" fill="#242424"/>
<path fill-rule="evenodd" clip-rule="evenodd" d="M22 11V5C22 3.34315 20.6569 2 19 2H13V11H22ZM16 5.5C15.4477 5.5 15 5.94772 15 6.5C15 7.05228 15.4477 7.5 16 7.5H19C19.5523 7.5 20 7.05228 20 6.5C20 5.94772 19.5523 5.5 19 5.5H16Z" fill="#242424"/>
</svg>
