<svg width="24" height="24" viewBox="0 0 24 24" fill="none" xmlns="http://www.w3.org/2000/svg">
<path fill-rule="evenodd" clip-rule="evenodd" d="M10.6628 2.68297C10.7792 2.71195 10.8919 2.74054 11 2.76836V18.7585C10.7652 18.6952 10.4855 18.6217 10.1795 18.5455C9.28625 18.3231 8.21625 18.0886 7.39279 17.9998C6.58892 17.9132 5.51931 17.9113 4.6208 17.9346C4.17786 17.9461 3.78789 17.9634 3.50894 17.9778C3.3696 17.985 3.25832 17.9914 3.18238 17.996L3 18C2.7236 18.0189 2.51994 17.9255 2.31746 17.7364C2.11496 17.5473 2 17.2827 2 17.0056V3.08375C2 2.55796 2.40811 2.12191 2.93266 2.08602L2.93459 2.0859C3.01792 2.08083 3.26103 2.06606 3.40593 2.05858C3.69775 2.04353 4.10519 2.02548 4.56887 2.01344C5.48358 1.98968 6.66396 1.9878 7.60721 2.08951C8.57349 2.1937 9.75349 2.45648 10.6628 2.68297ZM4.0001 6.98878C4.00791 6.43655 4.4619 5.9952 5.01413 6.00301C5.55292 6.01062 6.10612 6.03315 6.59952 6.0825C7.09925 6.13248 7.65103 6.2213 8.18585 6.32246C8.72851 6.4251 9.08522 6.94823 8.98258 7.49089C8.87994 8.03355 8.35682 8.39026 7.81415 8.28762C7.30955 8.19218 6.82029 8.11455 6.40049 8.07257C5.98576 8.03109 5.49498 8.01 4.98587 8.00281C4.43364 7.995 3.9923 7.54101 4.0001 6.98878ZM4.0001 9.98585C4.00791 9.43362 4.4619 8.99227 5.01413 9.00008C5.55292 9.00769 6.10612 9.03022 6.59952 9.07957C7.09925 9.12955 7.65103 9.21837 8.18585 9.31953C8.72851 9.42217 9.08522 9.9453 8.98258 10.488C8.87994 11.0306 8.35682 11.3873 7.81415 11.2847C7.30955 11.1892 6.82029 11.1116 6.40049 11.0696C5.98576 11.0282 5.49498 11.0071 4.98587 10.9999C4.43364 10.9921 3.9923 10.5381 4.0001 9.98585ZM4.0001 12.9829C4.00791 12.4307 4.4619 11.9893 5.01413 11.9971C5.55292 12.0048 6.10612 12.0273 6.59952 12.0766C7.09925 12.1266 7.65103 12.2154 8.18585 12.3166C8.72851 12.4192 9.08522 12.9424 8.98258 13.485C8.87994 14.0277 8.35682 14.3844 7.81415 14.2818C7.30955 14.1863 6.82029 14.1087 6.40049 14.0667C5.98576 14.0252 5.49498 14.0041 4.98587 13.9969C4.43364 13.9891 3.9923 13.5351 4.0001 12.9829Z" fill="#242424"/>
<path fill-rule="evenodd" clip-rule="evenodd" d="M13.8205 18.5455C13.5145 18.6217 13.2348 18.6952 13 18.7585V2.76836C13.1081 2.74054 13.2208 2.71195 13.3372 2.68297C14.2465 2.45648 15.4265 2.1937 16.3928 2.08951C17.336 1.9878 18.5164 1.98968 19.4311 2.01344C19.8948 2.02548 20.3023 2.04353 20.5941 2.05858C20.7389 2.06605 20.982 2.08083 21.0654 2.0859L21.0673 2.08602C21.5919 2.12191 22 2.55796 22 3.08375V17.0056C22 17.2827 21.885 17.5473 21.6825 17.7364C21.4801 17.9255 21.2764 18.0189 21 18L20.8176 17.996C20.7417 17.9914 20.6304 17.985 20.4911 17.9778C20.2121 17.9634 19.8221 17.9461 19.3792 17.9346C18.4807 17.9113 17.4111 17.9132 16.6072 17.9998C15.7838 18.0886 14.7138 18.3231 13.8205 18.5455ZM19.9999 6.98878C20.0077 7.54101 19.5664 7.995 19.0141 8.00281C18.505 8.01 18.0142 8.03109 17.5995 8.07257C17.1797 8.11455 16.6905 8.19218 16.1858 8.28762C15.6432 8.39026 15.1201 8.03355 15.0174 7.49089C14.9148 6.94823 15.2715 6.4251 15.8142 6.32246C16.349 6.2213 16.9008 6.13248 17.4005 6.0825C17.8939 6.03315 18.4471 6.01062 18.9859 6.00301C19.5381 5.9952 19.9921 6.43655 19.9999 6.98878ZM19.9999 9.98585C20.0077 10.5381 19.5664 10.9921 19.0141 10.9999C18.505 11.0071 18.0142 11.0282 17.5995 11.0696C17.1797 11.1116 16.6905 11.1892 16.1858 11.2847C15.6432 11.3873 15.1201 11.0306 15.0174 10.488C14.9148 9.9453 15.2715 9.42217 15.8142 9.31953C16.349 9.21837 16.9008 9.12955 17.4005 9.07957C17.8939 9.03022 18.4471 9.00769 18.9859 9.00008C19.5381 8.99227 19.9921 9.43362 19.9999 9.98585ZM19.9999 12.9829C20.0077 13.5351 19.5664 13.9891 19.0141 13.9969C18.505 14.0041 18.0142 14.0252 17.5995 14.0667C17.1797 14.1087 16.6905 14.1863 16.1858 14.2818C15.6432 14.3844 15.1201 14.0277 15.0174 13.485C14.9148 12.9424 15.2715 12.4192 15.8142 12.3166C16.349 12.2154 16.9008 12.1266 17.4005 12.0766C17.8939 12.0273 18.4471 12.0048 18.9859 11.9971C19.5381 11.9893 19.9921 12.4307 19.9999 12.9829Z" fill="#242424"/>
<path d="M7.59955 19.0826C6.66127 18.9888 5.48488 18.9904 4.57078 19.0124C4.10786 19.0236 3.70105 19.0403 3.40969 19.0542C3.26389 19.0612 3.14668 19.0675 3.06544 19.0721L2.93669 19.0797C2.38551 19.1147 1.96706 19.5898 2.00204 20.141C2.03703 20.6922 2.51233 21.1106 3.06348 21.0757L3.17803 21.0689C3.25416 21.0646 3.36567 21.0586 3.50525 21.052C3.78466 21.0386 4.17526 21.0226 4.61895 21.0119C5.51807 20.9902 6.59168 20.9918 7.40052 21.0727C8.22889 21.1556 9.30254 21.3739 10.1961 21.5803C10.6371 21.6822 11.0236 21.7787 11.2997 21.8496C11.4376 21.885 11.5476 21.914 11.6226 21.934L11.708 21.9569L11.7294 21.9627L11.7356 21.9644C11.9087 22.0119 12.0915 22.0118 12.2646 21.9644L12.2707 21.9627L12.292 21.9569L12.3774 21.934C12.4525 21.914 12.5625 21.885 12.7004 21.8496C12.9764 21.7787 13.363 21.6822 13.804 21.5803C14.6975 21.3739 15.7712 21.1556 16.5996 21.0727C17.4084 20.9918 18.482 20.9902 19.3811 21.0119C19.8248 21.0226 20.2154 21.0386 20.4948 21.052C20.6344 21.0586 20.7459 21.0646 20.822 21.0689L20.9087 21.074L20.9304 21.0753L20.9368 21.0757C21.4879 21.1106 21.963 20.6922 21.998 20.141C22.033 19.5898 21.6136 19.1146 21.0625 19.0796L21.0538 19.0791L21.0287 19.0776L20.9346 19.0721C20.8534 19.0675 20.7362 19.0612 20.5904 19.0542C20.299 19.0403 19.8922 19.0236 19.4293 19.0124C18.5152 18.9904 17.3388 18.9888 16.4005 19.0826C15.4392 19.1788 14.2628 19.4216 13.3538 19.6316C12.8935 19.738 12.4906 19.8385 12.2026 19.9125C12.1269 19.932 12.059 19.9496 12 19.9651C11.9411 19.9496 11.8732 19.932 11.7975 19.9125C11.5095 19.8385 11.1066 19.738 10.6463 19.6316C9.73727 19.4216 8.56091 19.1788 7.59955 19.0826Z" fill="#242424"/>
</svg>
