<svg width="24" height="24" viewBox="0 0 24 24" fill="none" xmlns="http://www.w3.org/2000/svg">
<path d="M3.75 7.5C3.75 7.08579 4.08579 6.75 4.5 6.75H19.5C19.9142 6.75 20.25 7.08579 20.25 7.5C20.25 7.91421 19.9142 8.25 19.5 8.25H4.5C4.08579 8.25 3.75 7.91421 3.75 7.5Z" fill="black"/>
<path d="M3.75 16.5C3.75 16.0858 4.08579 15.75 4.5 15.75H19.5C19.9142 15.75 20.25 16.0858 20.25 16.5C20.25 16.9142 19.9142 17.25 19.5 17.25H4.5C4.08579 17.25 3.75 16.9142 3.75 16.5Z" fill="black"/>
<path d="M4.5 11.25C4.08579 11.25 3.75 11.5858 3.75 12C3.75 12.4142 4.08579 12.75 4.5 12.75H13.5C13.9142 12.75 14.25 12.4142 14.25 12C14.25 11.5858 13.9142 11.25 13.5 11.25H4.5Z" fill="black"/>
</svg>
