<svg width="24" height="24" viewBox="0 0 24 24" fill="none" xmlns="http://www.w3.org/2000/svg">
<path d="M10.4824 3.29009C10.5894 2.93705 10.4934 2.55377 10.2325 2.29292C9.97166 2.03207 9.58839 1.93601 9.23534 2.04302C5.04907 3.31184 2 7.20005 2 11.803C2 17.4347 6.56536 22 12.197 22C16.8 22 20.6882 18.951 21.957 14.7647C22.064 14.4117 21.968 14.0284 21.7071 13.7676C21.4462 13.5067 21.063 13.4107 20.7099 13.5177C19.9575 13.7457 19.1582 13.8687 18.3284 13.8687C13.8013 13.8687 10.1313 10.1988 10.1313 5.67168C10.1313 4.84186 10.2543 4.04256 10.4824 3.29009Z" fill="#242424"/>
</svg>
