<svg width="24" height="24" viewBox="0 0 24 24" fill="none" xmlns="http://www.w3.org/2000/svg">
<path d="M13 12.5C13 13.3284 12.3284 14 11.5 14C10.6716 14 10 13.3284 10 12.5C10 11.6716 10.6716 11 11.5 11C12.3284 11 13 11.6716 13 12.5Z" fill="#172B4D"/>
<path d="M13 17.5C13 18.3284 12.3284 19 11.5 19C10.6716 19 10 18.3284 10 17.5C10 16.6716 10.6716 16 11.5 16C12.3284 16 13 16.6716 13 17.5Z" fill="#172B4D"/>
<path d="M13 7.5C13 8.32843 12.3284 9 11.5 9C10.6716 9 10 8.32843 10 7.5C10 6.67157 10.6716 6 11.5 6C12.3284 6 13 6.67157 13 7.5Z" fill="#172B4D"/>
</svg>
