<svg width="24" height="24" viewBox="0 0 24 24" fill="none" xmlns="http://www.w3.org/2000/svg">
<path d="M12.75 10.5C12.75 10.0858 12.4142 9.75 12 9.75C11.5858 9.75 11.25 10.0858 11.25 10.5V10.5919C10.3817 10.8567 9.75 11.6641 9.75 12.6191C9.75 13.3946 10.1736 14.1081 10.8544 14.4794L12.4274 15.3374C12.6263 15.4459 12.75 15.6544 12.75 15.8809C12.75 16.2228 12.4728 16.5 12.1309 16.5H12.0031L12 16.5L11.9978 16.5C11.5846 16.4988 11.25 16.1635 11.25 15.75V15.6136C11.25 15.1994 10.9142 14.8636 10.5 14.8636C10.0858 14.8636 9.75 15.1994 9.75 15.6136V15.75C9.75 16.7297 10.3761 17.5631 11.25 17.872V18C11.25 18.4142 11.5858 18.75 12 18.75C12.4142 18.75 12.75 18.4142 12.75 18V17.9081C13.6183 17.6433 14.25 16.8359 14.25 15.8809C14.25 15.1054 13.8264 14.3919 13.1456 14.0206L11.5726 13.1626C11.3737 13.0541 11.25 12.8456 11.25 12.6191C11.25 12.2772 11.5272 12 11.8691 12H12C12.4142 12 12.75 12.3358 12.75 12.75V12.8864C12.75 13.3006 13.0858 13.6364 13.5 13.6364C13.9142 13.6364 14.25 13.3006 14.25 12.8864V12.75C14.25 11.7703 13.6239 10.9369 12.75 10.628V10.5Z" fill="black"/>
<path fill-rule="evenodd" clip-rule="evenodd" d="M21.75 17.25V6.75C21.75 4.26472 19.7353 2.25 17.25 2.25H6.75C4.26472 2.25 2.25 4.26472 2.25 6.75V17.25C2.25 19.7353 4.26472 21.75 6.75 21.75H17.25C19.7353 21.75 21.75 19.7353 21.75 17.25ZM3.75 8.25V17.25C3.75 18.9069 5.09315 20.25 6.75 20.25H17.25C18.9069 20.25 20.25 18.9069 20.25 17.25V8.25H3.75ZM6.75 5.25C6.75 5.66421 6.41421 6 6 6C5.58579 6 5.25 5.66421 5.25 5.25C5.25 4.83579 5.58579 4.5 6 4.5C6.41421 4.5 6.75 4.83579 6.75 5.25ZM9 6C9.41421 6 9.75 5.66421 9.75 5.25C9.75 4.83579 9.41421 4.5 9 4.5C8.58579 4.5 8.25 4.83579 8.25 5.25C8.25 5.66421 8.58579 6 9 6ZM12.75 5.25C12.75 5.66421 12.4142 6 12 6C11.5858 6 11.25 5.66421 11.25 5.25C11.25 4.83579 11.5858 4.5 12 4.5C12.4142 4.5 12.75 4.83579 12.75 5.25Z" fill="black"/>
</svg>
