<svg width="24" height="24" viewBox="0 0 24 24" fill="none" xmlns="http://www.w3.org/2000/svg">
<path d="M12 10C10.8954 10 10 10.8954 10 12C10 13.1046 10.8954 14 12 14C13.1046 14 14 13.1046 14 12C14 10.8954 13.1046 10 12 10Z" fill="#242424"/>
<path fill-rule="evenodd" clip-rule="evenodd" d="M10 2C9.44772 2 9 2.44772 9 3V4.5818C8.95846 4.59861 8.9171 4.61576 8.87592 4.63325L7.75737 3.51471C7.36684 3.12419 6.73368 3.12419 6.34316 3.51471L3.51473 6.34314C3.1242 6.73366 3.1242 7.36683 3.51473 7.75735L4.63326 8.87589C4.61577 8.91708 4.59862 8.95845 4.5818 9H3C2.44772 9 2 9.44772 2 10V14C2 14.5523 2.44772 15 3 15H4.58181C4.59862 15.0415 4.61577 15.0829 4.63326 15.1241L3.51469 16.2426C3.12417 16.6332 3.12417 17.2663 3.51469 17.6569L6.34313 20.4853C6.73365 20.8758 7.36681 20.8758 7.75734 20.4853L8.87588 19.3667C8.91708 19.3842 8.95845 19.4014 9 19.4182V21C9 21.5523 9.44772 22 10 22H14C14.5523 22 15 21.5523 15 21V19.4182C15.0415 19.4014 15.0829 19.3842 15.1241 19.3667L16.2427 20.4853C16.4302 20.6728 16.6846 20.7782 16.9498 20.7782C17.215 20.7782 17.4693 20.6728 17.6569 20.4853L20.4853 17.6568C20.8758 17.2663 20.8758 16.6332 20.4853 16.2426L19.3667 15.1241C19.3842 15.0829 19.4014 15.0415 19.4182 15H21C21.5523 15 22 14.5523 22 14V10C22 9.44772 21.5523 9 21 9H19.4182C19.4014 8.95846 19.3842 8.91709 19.3667 8.8759L20.4853 7.75737C20.8758 7.36685 20.8758 6.73368 20.4853 6.34316L17.6568 3.51473C17.2663 3.1242 16.6332 3.1242 16.2426 3.51473L15.1241 4.63325C15.0829 4.61576 15.0415 4.59861 15 4.58179V3C15 2.44772 14.5523 2 14 2H10ZM8 12C8 9.79086 9.79086 8 12 8C14.2091 8 16 9.79086 16 12C16 14.2091 14.2091 16 12 16C9.79086 16 8 14.2091 8 12Z" fill="#242424"/>
</svg>
