<svg width="24" height="24" viewBox="0 0 24 24" fill="none" xmlns="http://www.w3.org/2000/svg">
<path d="M7 7.73684C7 4.77732 8.8052 2 12 2C15.1948 2 17 4.77732 17 7.73684C17 8.58601 16.8105 9.35366 16.4895 10.0237C16.4875 10.0277 16.4856 10.0318 16.4836 10.0358C15.5864 11.8961 13.6751 13 12 13C10.3213 13 8.40525 11.8913 7.51052 10.0237C7.18954 9.35366 7 8.58601 7 7.73684Z" fill="black"/>
<path d="M3 15C3 13.1157 4.04234 11.4748 5.58188 10.6226C6.75465 13.3559 9.50373 15 12 15C14.4963 15 17.2453 13.3559 18.4181 10.6226C19.9577 11.4748 21 13.1157 21 15V18C21 19.6569 19.6569 21 18 21H6C4.34315 21 3 19.6569 3 18V15Z" fill="black"/>
</svg>
