<svg width="24" height="24" viewBox="0 0 24 24" fill="none" xmlns="http://www.w3.org/2000/svg">
<path fill-rule="evenodd" clip-rule="evenodd" d="M14 2H5C3.89543 2 3 2.89543 3 4V20C3 21.1046 3.89543 22 5 22H19C20.1046 22 21 21.1046 21 20V9H16C14.8954 9 14 8.10457 14 7V2ZM7 7C6.44772 7 6 7.44772 6 8C6 8.55228 6.44772 9 7 9H11C11.5523 9 12 8.55228 12 8C12 7.44772 11.5523 7 11 7H7ZM7 11C6.44772 11 6 11.4477 6 12C6 12.5523 6.44772 13 7 13H8C8.55228 13 9 12.5523 9 12C9 11.4477 8.55228 11 8 11H7ZM11 11C10.4477 11 10 11.4477 10 12C10 12.5523 10.4477 13 11 13H17C17.5523 13 18 12.5523 18 12C18 11.4477 17.5523 11 17 11H11ZM7 14C6.44772 14 6 14.4477 6 15C6 15.5523 6.44772 16 7 16H8C8.55228 16 9 15.5523 9 15C9 14.4477 8.55228 14 8 14H7ZM11 14C10.4477 14 10 14.4477 10 15C10 15.5523 10.4477 16 11 16H17C17.5523 16 18 15.5523 18 15C18 14.4477 17.5523 14 17 14H11ZM7 17C6.44772 17 6 17.4477 6 18C6 18.5523 6.44772 19 7 19H8C8.55228 19 9 18.5523 9 18C9 17.4477 8.55228 17 8 17H7ZM11 17C10.4477 17 10 17.4477 10 18C10 18.5523 10.4477 19 11 19H17C17.5523 19 18 18.5523 18 18C18 17.4477 17.5523 17 17 17H11Z" fill="#242424"/>
<path d="M20.4142 7L16 2.58579V7H20.4142Z" fill="#242424"/>
</svg>
