<svg width="24" height="24" viewBox="0 0 24 24" fill="none" xmlns="http://www.w3.org/2000/svg">
<path d="M2 6C2 4.34315 3.34315 3 5 3H19C20.6569 3 22 4.34315 22 6V7H2V6Z" fill="#242424"/>
<path d="M13.7639 15L11 16.382V13.618L13.7639 15Z" fill="#242424"/>
<path fill-rule="evenodd" clip-rule="evenodd" d="M2 9V18C2 19.6569 3.34315 21 5 21H19C20.6569 21 22 19.6569 22 18V9H2ZM10.4472 11.1056C10.1372 10.9506 9.76909 10.9671 9.47427 11.1493C9.17945 11.3316 9 11.6534 9 12V18C9 18.3466 9.17945 18.6684 9.47427 18.8507C9.76909 19.0329 10.1372 19.0494 10.4472 18.8944L16.4472 15.8944C16.786 15.725 17 15.3788 17 15C17 14.6212 16.786 14.275 16.4472 14.1056L10.4472 11.1056Z" fill="#242424"/>
</svg>
