<svg width="24" height="24" viewBox="0 0 24 24" fill="none" xmlns="http://www.w3.org/2000/svg">
<path d="M4.5 6.375C3.87868 6.375 3.375 6.87868 3.375 7.5C3.375 8.12132 3.87868 8.625 4.5 8.625H5.25C5.87132 8.625 6.375 8.12132 6.375 7.5C6.375 6.87868 5.87132 6.375 5.25 6.375H4.5Z" fill="black"/>
<path d="M8.25 6.375C7.62868 6.375 7.125 6.87868 7.125 7.5C7.125 8.12132 7.62868 8.625 8.25 8.625H19.5C20.1213 8.625 20.625 8.12132 20.625 7.5C20.625 6.87868 20.1213 6.375 19.5 6.375H8.25Z" fill="black"/>
<path d="M7.125 16.5C7.125 15.8787 7.62868 15.375 8.25 15.375H19.5C20.1213 15.375 20.625 15.8787 20.625 16.5C20.625 17.1213 20.1213 17.625 19.5 17.625H8.25C7.62868 17.625 7.125 17.1213 7.125 16.5Z" fill="black"/>
<path d="M4.5 15.375C3.87868 15.375 3.375 15.8787 3.375 16.5C3.375 17.1213 3.87868 17.625 4.5 17.625H5.25C5.87132 17.625 6.375 17.1213 6.375 16.5C6.375 15.8787 5.87132 15.375 5.25 15.375H4.5Z" fill="black"/>
<path d="M7.125 12C7.125 11.3787 7.62868 10.875 8.25 10.875H19.5C20.1213 10.875 20.625 11.3787 20.625 12C20.625 12.6213 20.1213 13.125 19.5 13.125H8.25C7.62868 13.125 7.125 12.6213 7.125 12Z" fill="black"/>
<path d="M4.5 10.875C3.87868 10.875 3.375 11.3787 3.375 12C3.375 12.6213 3.87868 13.125 4.5 13.125H5.25C5.87132 13.125 6.375 12.6213 6.375 12C6.375 11.3787 5.87132 10.875 5.25 10.875H4.5Z" fill="black"/>
</svg>
